<?xml version="1.0" encoding="utf-8"?>
<!-- Generator: Adobe Illustrator 25.4.1, SVG Export Plug-In . SVG Version: 6.00 Build 0)  -->
<svg version="1.1" id="Layer_1" xmlns="http://www.w3.org/2000/svg" xmlns:xlink="http://www.w3.org/1999/xlink" x="0px" y="0px"
	 viewBox="0 0 600 613.2" style="enable-background:new 0 0 600 613.2;" xml:space="preserve">
<style type="text/css">
	.st0{fill:#9E9E9E;}
	.st1{opacity:0.5;fill:#9E9E9E;}
	.st2{fill:url(#SVGID_1_);}
	.st3{fill:url(#SVGID_00000000942410946406612460000008771801507188400575_);}
	.st4{fill:url(#SVGID_00000015317118708303091350000014291317756153488805_);}
	.st5{fill:url(#SVGID_00000056425842990025837060000016922901894620483471_);}
	.st6{fill:#C12727;}
	.st7{fill:#E5C828;}
	.st8{fill:#3F8F6F;}
	.st9{fill:#318FA6;}
	.st10{fill:none;}
	.st11{opacity:0.1;fill-rule:evenodd;clip-rule:evenodd;enable-background:new    ;}
	.st12{fill-rule:evenodd;clip-rule:evenodd;fill:#72CBCC;}
	.st13{fill-rule:evenodd;clip-rule:evenodd;fill:#50A9AA;}
	.st14{fill-rule:evenodd;clip-rule:evenodd;fill:#369496;}
	.st15{fill:#1C7678;}
	.st16{fill:#369496;}
	.st17{fill:#72CBCC;}
	.st18{opacity:0.1;enable-background:new    ;}
	.st19{fill-rule:evenodd;clip-rule:evenodd;fill:#5EC0D9;}
	.st20{fill-rule:evenodd;clip-rule:evenodd;fill:#3AA0BA;}
	.st21{fill:#5EC0D9;}
	.st22{fill-rule:evenodd;clip-rule:evenodd;fill:#DFBDA5;}
	.st23{fill-rule:evenodd;clip-rule:evenodd;fill:#C3987B;}
	.st24{fill-rule:evenodd;clip-rule:evenodd;fill:#8B6651;}
	.st25{fill-rule:evenodd;clip-rule:evenodd;fill:#474747;}
	.st26{fill-rule:evenodd;clip-rule:evenodd;fill:#FFFFFF;}
	.st27{fill-rule:evenodd;clip-rule:evenodd;fill:#737373;}
	.st28{fill-rule:evenodd;clip-rule:evenodd;fill:#2B2B2B;}
	.st29{fill-rule:evenodd;clip-rule:evenodd;fill:#8F8F8F;}
	.st30{fill-rule:evenodd;clip-rule:evenodd;fill:#1C7678;}
	.st31{fill-rule:evenodd;clip-rule:evenodd;fill:#165E60;}
	.st32{fill-rule:evenodd;clip-rule:evenodd;fill:#73CFE5;}
	.st33{fill-rule:evenodd;clip-rule:evenodd;fill:#318FA6;}
	.st34{fill-rule:evenodd;clip-rule:evenodd;fill:#E8CAB6;}
	.st35{fill-rule:evenodd;clip-rule:evenodd;fill:#B25757;}
	.st36{fill-rule:evenodd;clip-rule:evenodd;fill:#724E4E;}
	.st37{fill-rule:evenodd;clip-rule:evenodd;fill:#DD4545;}
	.st38{fill-rule:evenodd;clip-rule:evenodd;fill:#C12727;}
	.st39{fill-rule:evenodd;clip-rule:evenodd;fill:#EA6363;}
	.st40{fill-rule:evenodd;clip-rule:evenodd;fill:#CE7474;}
	.st41{fill-rule:evenodd;clip-rule:evenodd;fill:#734D60;}
	.st42{fill-rule:evenodd;clip-rule:evenodd;fill:#858686;}
	.st43{fill-rule:evenodd;clip-rule:evenodd;fill:#6F7173;}
	.st44{fill-rule:evenodd;clip-rule:evenodd;fill:#D88888;}
	.st45{fill:#724E4E;}
	.st46{fill:#B25757;}
	.st47{fill:#DD4545;}
	.st48{fill-rule:evenodd;clip-rule:evenodd;fill:#738D57;}
	.st49{fill-rule:evenodd;clip-rule:evenodd;fill:#5A753D;}
	.st50{fill-rule:evenodd;clip-rule:evenodd;fill:#E8F078;}
	.st51{fill-rule:evenodd;clip-rule:evenodd;fill:#D9E354;}
	.st52{fill-rule:evenodd;clip-rule:evenodd;fill:#B8C745;}
	.st53{fill-rule:evenodd;clip-rule:evenodd;fill:#709D53;}
	.st54{fill-rule:evenodd;clip-rule:evenodd;fill:#446125;}
	.st55{fill:#35785D;}
	.st56{fill:#54B08B;}
	.st57{fill-rule:evenodd;clip-rule:evenodd;fill:#99C26D;}
	.st58{fill-rule:evenodd;clip-rule:evenodd;fill:#54B08B;}
	.st59{fill-rule:evenodd;clip-rule:evenodd;fill:#3F8F6F;}
	.st60{fill-rule:evenodd;clip-rule:evenodd;fill:#35785D;}
	.st61{fill:#D9E354;}
	.st62{fill-rule:evenodd;clip-rule:evenodd;fill:#755800;}
	.st63{fill-rule:evenodd;clip-rule:evenodd;fill:#9E7700;}
	.st64{fill-rule:evenodd;clip-rule:evenodd;}
	.st65{fill-rule:evenodd;clip-rule:evenodd;fill:#4F5253;}
	.st66{fill-rule:evenodd;clip-rule:evenodd;fill:#856400;}
	.st67{fill-rule:evenodd;clip-rule:evenodd;fill:#F4D75D;}
	.st68{fill-rule:evenodd;clip-rule:evenodd;fill:#E5C828;}
	.st69{fill-rule:evenodd;clip-rule:evenodd;fill:#CCAD14;}
	.st70{fill:#2B2B2B;}
</style>
<g>
	<g>
		<g>
			<path class="st0" d="M292.1,27.9V22h-1.6v-2.1h1.6v-0.9c0-1,0.3-1.8,0.9-2.3c0.6-0.6,1.4-0.9,2.3-0.9c0.6,0,1.1,0.1,1.4,0.2v2.1
				c-0.2-0.1-0.5-0.1-0.9-0.1c-0.5,0-0.8,0.1-1.1,0.3c-0.2,0.2-0.3,0.6-0.3,1v0.6h2.2V22h-2.2v5.9H292.1z"/>
			<path class="st0" d="M300.3,28.1c-1,0-1.9-0.4-2.6-1.2c-0.7-0.8-1.1-1.8-1.1-2.9c0-1.1,0.4-2.1,1.1-2.9c0.7-0.8,1.6-1.2,2.6-1.2
				c0.9,0,1.6,0.3,2.2,1v-0.8h2.4v8h-2.4v-0.8C301.9,27.8,301.2,28.1,300.3,28.1z M299.5,25.4c0.3,0.4,0.8,0.6,1.3,0.6
				c0.5,0,1-0.2,1.3-0.6c0.3-0.4,0.5-0.8,0.5-1.4s-0.2-1-0.5-1.4c-0.3-0.4-0.8-0.6-1.3-0.6c-0.5,0-1,0.2-1.3,0.6
				c-0.3,0.4-0.5,0.8-0.5,1.4S299.2,25,299.5,25.4z"/>
			<path class="st0" d="M309.9,28.1c-1.2,0-2.2-0.4-3-1.2c-0.8-0.8-1.2-1.8-1.2-3c0-1.2,0.4-2.2,1.2-3c0.8-0.8,1.8-1.2,3-1.2
				c1.1,0,2,0.3,2.7,0.9c0.7,0.6,1.2,1.4,1.4,2.4h-2.5c-0.4-0.7-0.9-1.1-1.6-1.1c-0.5,0-0.9,0.2-1.3,0.5c-0.3,0.4-0.5,0.8-0.5,1.5
				c0,0.6,0.2,1.1,0.5,1.5c0.3,0.4,0.8,0.5,1.3,0.5c0.7,0,1.3-0.4,1.6-1.1h2.5c-0.2,1-0.7,1.8-1.4,2.4
				C311.9,27.8,311,28.1,309.9,28.1z"/>
			<path class="st0" d="M318.7,28c-0.9,0-1.7-0.3-2.3-0.8c-0.6-0.5-0.9-1.3-0.9-2.2v-3h-1.6v-2.1h1.6v-2.2h2.4v2.2h2.2V22h-2.2v2.5
				c0,0.5,0.1,0.8,0.3,1c0.2,0.2,0.6,0.3,1,0.3c0.4,0,0.7,0,0.9-0.1v2.1C319.8,28,319.3,28,318.7,28z"/>
			<path class="st0" d="M327.6,26.9c-0.8,0.8-1.8,1.2-3,1.2c-1.2,0-2.1-0.4-3-1.2c-0.8-0.8-1.2-1.8-1.2-3c0-1.2,0.4-2.2,1.2-3
				c0.8-0.8,1.8-1.2,3-1.2c1.2,0,2.1,0.4,3,1.2c0.8,0.8,1.2,1.8,1.2,3C328.8,25.1,328.4,26.1,327.6,26.9z M323.3,25.3
				c0.3,0.4,0.8,0.5,1.3,0.5c0.5,0,0.9-0.2,1.3-0.5c0.3-0.4,0.5-0.8,0.5-1.4s-0.2-1-0.5-1.4c-0.3-0.4-0.8-0.5-1.3-0.5
				c-0.5,0-0.9,0.2-1.3,0.5c-0.3,0.4-0.5,0.8-0.5,1.4S323,25,323.3,25.3z"/>
			<path class="st0" d="M329.6,27.9v-8h2.4v1.2c0.1-0.4,0.4-0.7,0.7-0.9c0.4-0.2,0.7-0.4,1.2-0.4c0.3,0,0.5,0,0.8,0.1v2.4
				c-0.4-0.1-0.7-0.2-1.1-0.2c-0.5,0-0.9,0.2-1.2,0.5c-0.3,0.4-0.4,0.8-0.4,1.4v3.8H329.6z"/>
		</g>
		<g>
			<path class="st0" d="M283.7,14l-9.1-1.8c-2.7-0.5-5.3,1.2-5.9,3.9l-0.8,4l0.2-0.1c0.3-0.1,0.6-0.3,1-0.5c1.1-0.5,2.3-1.1,3.4-1.5
				c0,0,0,0,0,0l-1.1-0.5l1.8-0.3c1.2-0.1,2.2-0.2,3.3-0.2c0.6,0,1.2,0,1.8,0.1c0.8,0.1,1.5,0.4,2.1,0.7c0.6,0.3,1.3,0.6,1.9,0.6
				c0.1,0,0.1,0,0.2,0l1.1-0.1l-0.1,0.5c0.5,0.1,0.9,0.3,1.4,0.6c0,0,0.1,0,0.1,0.1c0.2,0.1,0.5,0.3,0.7,0.5
				c0.2,0.3,0.3,0.6,0.4,0.9c0.1,0.4,0.1,0.7,0.1,1.1c0,0.8-0.4,1.7-1,2.3c-0.7,0.7-1.1,0.8-1.7,0.9c0,0-0.1,0-0.1,0l-1.3,0.3
				l0.5-1.3c0-0.1,0.1-0.3,0.1-0.4c-0.2,0.2-0.3,0.3-0.4,0.5c-0.5,0.6-1.1,1.2-1.8,1.6c-0.3,0.2-0.6,0.2-0.9,0.2c-0.2,0-0.3,0-0.4,0
				c-0.3,0.2-0.5,0.3-0.7,0.5l-2.1,5.6l3.8,0.8c2.7,0.5,5.3-1.2,5.9-3.9l1.8-9.1C288.2,17.2,286.4,14.6,283.7,14z"/>
			<path class="st1" d="M273.1,17.7l1,0.5c0,0,0,0,0,0c-1,0.3-2,0.8-3,1.3c-0.3,0.1-2.7,1.3-2.7,1.3s0.5,0.2,0.8,0.5
				c-1.4,0.8-2.4,1.5-3.9,2.3l2.3-0.2l2.9-2c0,0-0.5-0.3-0.8-0.5c1.6-0.7,4.4-2.2,5.8-2.4c-0.2-0.1-0.5-0.2-0.7-0.3
				c-0.1,0-0.2-0.1-0.2-0.1c0.7-0.3,2.2-0.6,3.3-0.6C275.6,17.3,273.1,17.7,273.1,17.7z"/>
		</g>
	</g>
	<g>
		<g>
			<linearGradient id="SVGID_1_" gradientUnits="userSpaceOnUse" x1="201.6742" y1="133.3663" x2="201.6742" y2="45.124">
				<stop  offset="0" style="stop-color:#BF002A"/>
				<stop  offset="1" style="stop-color:#000000"/>
			</linearGradient>
			<path class="st2" d="M167,132.1V46.4c0-0.9,0.4-1.3,1.3-1.3h34.1c16.6,0,27.1,6.7,31.4,20.1c1.7,5.4,2.6,13.4,2.6,24
				s-0.9,18.6-2.6,24c-4.3,13.4-14.8,20.1-31.4,20.1h-34.1C167.4,133.4,167,132.9,167,132.1z M189.8,112.3c0,0.5,0.3,0.8,0.8,0.8
				h6.9c4.1,0,7.2-0.6,9.5-1.9c2.3-1.3,3.9-3.5,5-6.5c0.9-2.9,1.3-8,1.3-15.4s-0.4-12.6-1.3-15.4c-1-3-2.7-5.2-5-6.5
				c-2.3-1.3-5.5-1.9-9.5-1.9h-6.9c-0.5,0-0.8,0.3-0.8,0.8V112.3z"/>
			
				<linearGradient id="SVGID_00000011727116785244719870000009080813141915243959_" gradientUnits="userSpaceOnUse" x1="260.2683" y1="133.3663" x2="260.2683" y2="45.124">
				<stop  offset="0" style="stop-color:#FFD815"/>
				<stop  offset="1" style="stop-color:#000000"/>
			</linearGradient>
			<path style="fill:url(#SVGID_00000011727116785244719870000009080813141915243959_);" d="M248.8,132.1V46.4
				c0-0.9,0.4-1.3,1.3-1.3h20.2c0.9,0,1.3,0.4,1.3,1.3v85.6c0,0.9-0.4,1.3-1.3,1.3h-20.2C249.3,133.4,248.8,132.9,248.8,132.1z"/>
			
				<linearGradient id="SVGID_00000060751369255333945180000012048067123161927333_" gradientUnits="userSpaceOnUse" x1="317.696" y1="134.9239" x2="317.696" y2="43.5663">
				<stop  offset="0" style="stop-color:#43BF00"/>
				<stop  offset="1" style="stop-color:#000000"/>
			</linearGradient>
			<path style="fill:url(#SVGID_00000060751369255333945180000012048067123161927333_);" d="M317.7,134.9c-6.9,0-13.7-1.2-20.4-3.7
				c-6.7-2.5-11.7-5.4-15.2-8.9c-0.8-0.7-0.8-1.4-0.1-2.1l11.7-13.8c0.6-0.7,1.2-0.7,1.8-0.1c6.7,5.9,14.2,8.8,22.5,8.8
				c4,0,7.1-0.8,9.2-2.3c2.2-1.5,3.3-3.5,3.3-6c0-2-0.8-3.6-2.5-4.8c-1.6-1.2-4.5-2.1-8.7-2.6l-4.7-0.6c-19.6-2.8-29.5-12-29.5-27.8
				c0-8.3,3-15,9-20c6-5,13.9-7.5,23.9-7.5c12.5,0,23,3.2,31.5,9.7c0.7,0.5,0.8,1.2,0.3,1.9l-9.7,14.1c-0.5,0.7-1.1,0.8-1.8,0.4
				c-6.7-4.4-13.3-6.6-19.9-6.6c-3.1,0-5.5,0.7-7.2,2c-1.7,1.3-2.5,3.1-2.5,5.4c0,2,0.9,3.6,2.6,4.8c1.7,1.2,4.6,2.1,8.7,2.6
				l4.7,0.6c9.8,1.4,17.1,4.3,21.9,8.9c4.8,4.5,7.3,10.9,7.3,19.1c0,8.5-3.1,15.3-9.4,20.5C338.1,132.3,329.3,134.9,317.7,134.9z"/>
			
				<linearGradient id="SVGID_00000046317078178832101820000015295950383681020593_" gradientUnits="userSpaceOnUse" x1="395.6171" y1="134.9239" x2="395.6171" y2="43.5663">
				<stop  offset="0" style="stop-color:#008E94"/>
				<stop  offset="1" style="stop-color:#000000"/>
			</linearGradient>
			<path style="fill:url(#SVGID_00000046317078178832101820000015295950383681020593_);" d="M365,113.1c-1.7-5.3-2.6-13.2-2.6-23.9
				s0.9-18.6,2.6-23.9c2.3-7.2,6.3-12.6,11.7-16.3c5.5-3.7,12.3-5.5,20.3-5.5c7.7,0,14.3,1.8,19.7,5.3c5.4,3.5,9.4,8.5,11.9,14.9
				c0.3,0.9,0.1,1.5-0.6,1.8L410.8,73c-0.9,0.3-1.5,0.1-1.8-0.8c-2.6-5.5-6.5-8.3-11.6-8.3c-5.4,0-9,2.6-10.6,7.7
				c-0.9,2.6-1.3,8.5-1.3,17.6c0,9.2,0.4,15.1,1.3,17.6c1.6,5.1,5.2,7.7,10.6,7.7c5.1,0,9-2.8,11.6-8.3c0.3-0.9,1-1.1,1.8-0.8
				L428,113c0.8,0.3,1,1,0.6,1.8c-2.5,6.4-6.5,11.4-11.9,14.9c-5.4,3.5-12,5.3-19.7,5.3c-8,0-14.8-1.8-20.3-5.5
				C371.2,125.7,367.3,120.3,365,113.1z"/>
		</g>
		<g>
			<path class="st6" d="M206.6,134.1h-34.1c-1.3,0-2-0.8-2-2V46.4c0-1.3,0.8-2,2-2h34.1c16.9,0,27.7,6.9,32.1,20.6
				c1.7,5.5,2.6,13.6,2.6,24.2c0,10.6-0.9,18.7-2.6,24.2C234.2,127.1,223.4,134.1,206.6,134.1z M172.4,45.8c-0.5,0-0.6,0.1-0.6,0.6
				v85.6c0,0.5,0.1,0.6,0.6,0.6h34.1c16.2,0,26.5-6.6,30.7-19.6c1.7-5.4,2.6-13.4,2.6-23.8c0-10.4-0.9-18.4-2.6-23.8
				C233,52.3,223,45.8,206.6,45.8H172.4z M201.6,113.8h-6.9c-0.9,0-1.5-0.6-1.5-1.5V66.1c0-0.9,0.6-1.5,1.5-1.5h6.9
				c4.2,0,7.5,0.7,9.9,2c2.4,1.4,4.2,3.7,5.3,6.9c0.9,3,1.3,8.1,1.3,15.7c0,7.6-0.4,12.7-1.3,15.6c-1.1,3.2-2.9,5.5-5.3,6.9
				C209.1,113.1,205.8,113.8,201.6,113.8z M194.7,112.4C194.7,112.4,194.7,112.4,194.7,112.4l6.9,0c3.9,0,7-0.6,9.2-1.9
				c2.1-1.2,3.7-3.2,4.7-6.1c0.8-2.7,1.3-7.9,1.3-15.2c0-7.3-0.4-12.5-1.3-15.2c-1-2.9-2.5-4.9-4.7-6.1c-2.2-1.2-5.3-1.9-9.2-1.9
				h-6.9c0,0,0,0-0.1,0c0,0,0,0,0,0.1L194.7,112.4C194.7,112.4,194.7,112.4,194.7,112.4C194.7,112.4,194.7,112.4,194.7,112.4z"/>
			<path class="st7" d="M274.6,134.1h-20.2c-1.3,0-2-0.8-2-2V46.4c0-1.3,0.8-2,2-2h20.2c1.3,0,2,0.8,2,2v85.6
				C276.6,133.3,275.8,134.1,274.6,134.1z M254.3,45.8c-0.5,0-0.6,0.1-0.6,0.6v85.6c0,0.5,0.1,0.6,0.6,0.6h20.2
				c0.5,0,0.6-0.1,0.6-0.6V46.4c0-0.5-0.1-0.6-0.6-0.6H254.3z"/>
			<path class="st8" d="M321.9,135.6c-7,0-13.9-1.3-20.6-3.7c-6.7-2.5-11.9-5.5-15.4-9c-0.5-0.5-0.8-1-0.8-1.5c0-0.5,0.2-1,0.7-1.5
				l11.6-13.7c0.4-0.5,0.9-0.8,1.5-0.8c0.5,0,1,0.2,1.4,0.6c6.5,5.7,13.9,8.6,22,8.6c3.8,0,6.8-0.7,8.8-2.1c2-1.4,3-3.2,3-5.5
				c0-1.8-0.7-3.1-2.2-4.2c-1.5-1.1-4.4-2-8.4-2.5l-4.7-0.7c-19.9-2.8-30.1-12.4-30.1-28.5c0-8.5,3.1-15.4,9.2-20.5
				c6.1-5.1,14.3-7.7,24.3-7.7c12.6,0,23.3,3.3,32,9.9c1,0.8,1.2,1.8,0.4,2.9l-9.7,14.2c-0.8,1-1.8,1.2-2.8,0.6
				c-6.5-4.3-13.1-6.5-19.5-6.5c-2.9,0-5.2,0.6-6.8,1.9c-1.5,1.2-2.3,2.8-2.3,4.8c0,1.8,0.8,3.1,2.3,4.2c1.6,1.1,4.4,2,8.4,2.5
				l4.7,0.7c9.9,1.4,17.4,4.5,22.3,9.1c5,4.7,7.5,11.3,7.5,19.7c0,8.7-3.2,15.7-9.7,21C342.7,133,333.6,135.6,321.9,135.6z
				 M298.9,106.7C298.9,106.7,298.9,106.7,298.9,106.7c0,0-0.2,0-0.4,0.3l-11.7,13.7c-0.2,0.2-0.3,0.4-0.3,0.5
				c0,0.1,0.1,0.3,0.4,0.6c3.4,3.4,8.4,6.3,15,8.7c6.6,2.4,13.3,3.7,20.1,3.7c11.3,0,20.1-2.6,26.2-7.6c6.1-5,9.1-11.7,9.1-20
				c0-8-2.4-14.2-7-18.6c-4.7-4.4-12-7.3-21.5-8.7l-4.7-0.6c-4.2-0.5-7.2-1.4-9-2.7c-1.9-1.3-2.9-3.2-2.9-5.4c0-2.5,0.9-4.5,2.8-5.9
				c1.8-1.4,4.4-2.2,7.6-2.2c6.7,0,13.5,2.3,20.2,6.7c0.3,0.2,0.5,0.2,0.9-0.2l9.7-14.1c0.3-0.5,0.2-0.7-0.1-1
				c-8.4-6.4-18.9-9.6-31.1-9.6c-9.7,0-17.6,2.5-23.4,7.4c-5.8,4.9-8.7,11.4-8.7,19.4c0,15.5,9.4,24.3,28.8,27.1l4.7,0.6
				c4.3,0.5,7.2,1.4,9,2.7c1.8,1.4,2.8,3.2,2.8,5.4c0,2.7-1.2,5-3.6,6.6c-2.3,1.6-5.5,2.4-9.6,2.4c-8.4,0-16.2-3-22.9-9
				C299.1,106.7,299,106.7,298.9,106.7z"/>
			<path class="st9" d="M401.2,135.6c-8.2,0-15.1-1.9-20.7-5.6c-5.6-3.8-9.7-9.4-12-16.7c-1.7-5.3-2.6-13.4-2.6-24.1
				c0-10.7,0.9-18.8,2.6-24.1c2.4-7.3,6.4-12.9,12-16.7c5.6-3.7,12.6-5.6,20.7-5.6c7.8,0,14.6,1.8,20.1,5.4
				c5.6,3.6,9.7,8.7,12.2,15.2c0.5,1.2,0.1,2.2-1,2.7l-17.3,7.5c-0.6,0.3-1.2,0.3-1.7,0.1c-0.5-0.2-0.8-0.6-1.1-1.2
				c-2.5-5.3-6-7.9-10.9-7.9c-5.2,0-8.4,2.3-10,7.2c-0.8,2.5-1.3,8.4-1.3,17.4s0.4,14.9,1.3,17.4c1.6,4.8,4.8,7.2,10,7.2
				c4.8,0,8.4-2.6,10.9-7.9c0.2-0.6,0.6-1,1.1-1.2c0.5-0.2,1-0.2,1.7,0.1l17.3,7.5c1.1,0.5,1.5,1.5,1,2.7
				c-2.5,6.5-6.7,11.6-12.2,15.2C415.8,133.8,409,135.6,401.2,135.6z M401.2,44.3c-7.9,0-14.6,1.8-19.9,5.4
				c-5.3,3.6-9.2,8.9-11.5,15.9c-1.7,5.2-2.6,13.1-2.6,23.7c0,10.5,0.9,18.5,2.6,23.7l0,0c2.3,7,6.1,12.3,11.5,15.9
				c5.3,3.6,12,5.4,19.9,5.4c7.5,0,14-1.7,19.3-5.1c5.3-3.4,9.2-8.3,11.7-14.5c0.3-0.6,0.1-0.8-0.3-0.9l-17.3-7.5
				c-0.2-0.1-0.4-0.1-0.5-0.1c-0.2,0.1-0.3,0.3-0.3,0.4c-2.7,5.8-6.8,8.8-12.2,8.8c-5.8,0-9.6-2.7-11.3-8.1
				c-0.9-2.7-1.3-8.5-1.3-17.9c0-9.3,0.4-15.2,1.3-17.9c1.7-5.4,5.6-8.1,11.3-8.1c5.4,0,9.5,2.9,12.2,8.7c0.1,0.2,0.2,0.4,0.3,0.5
				c0.1,0.1,0.3,0,0.6-0.1l17.2-7.5c0.3-0.1,0.5-0.3,0.3-0.9c-2.4-6.2-6.4-11.1-11.7-14.5C415.3,46,408.7,44.3,401.2,44.3z"/>
		</g>
	</g>
</g>
<g id="illustration_copy_2">
	<rect y="163.2" class="st10" width="600" height="450"/>
	<g id="Warstwa_3_copy_5">
		<polygon class="st11" points="38.8,512.8 191.2,532.2 332.1,512.8 191,499.7 		"/>
		<polygon class="st12" points="146.2,506.8 124,502.5 101.5,506.8 124.1,510.7 		"/>
		<polygon class="st13" points="146.2,506.8 146.2,514 124.2,518 124.1,510.7 		"/>
		<polygon class="st14" points="124.2,518 101.5,514 101.5,506.8 124.1,510.7 		"/>
		<rect x="118.8" y="459.4" class="st15" width="11.6" height="47.6"/>
		<polygon class="st12" points="185.1,450 124.1,438.1 62.7,450 124.6,460.4 		"/>
		<polygon class="st13" points="185.1,450 185.1,457 124.7,467.8 124.6,460.4 		"/>
		<polygon class="st14" points="124.7,467.8 62.7,457 62.7,450 124.6,460.4 		"/>
		<rect x="180.3" y="283.3" class="st16" width="5.1" height="232.6"/>
		<rect x="185.3" y="283.3" class="st17" width="5.1" height="232.6"/>
		<rect x="180.3" y="283.3" class="st18" width="10.1" height="41.6"/>
		<polygon class="st19" points="185.3,181.2 131.4,275.1 185.3,289.3 		"/>
		<polygon class="st20" points="185.3,181.2 131.4,275.1 61,256.5 		"/>
		<polygon class="st21" points="0,240.3 61,256.5 185.3,181.2 		"/>
		<polygon class="st20" points="185.3,181.2 239.1,275.1 185.3,289.3 		"/>
		<polygon class="st19" points="185.3,181.2 239.1,275.1 309.5,256.5 		"/>
		<polygon class="st20" points="185.3,181.2 309.5,256.5 370.5,240.3 		"/>
	</g>
	<g id="Warstwa_4_copy_5">
		<polygon class="st11" points="443.8,550.8 525.6,542.4 600.1,556.7 529,566.9 		"/>
		<polygon class="st22" points="534.3,272.7 504.6,276.8 484.4,262.7 467.1,360 484.6,363.4 508.4,385.9 524.4,382.7 544.7,363.4 
			556.1,338.2 562.3,322.7 549,313.2 537.4,329.6 530.7,323.7 557.9,288.2 		"/>
		<polygon class="st23" points="534.3,272.7 514.5,369.4 524.4,382.7 546.2,364 555.5,339.6 541.8,332.4 537.4,329.6 533.4,324.3 
			556.5,287.1 		"/>
		<polygon class="st24" points="547.7,330.6 550.8,322.2 558.8,325.4 		"/>
		<polygon class="st24" points="555.5,339.6 544.4,333.7 549.7,354.9 		"/>
		<polygon class="st24" points="491,321.1 495.2,326.5 500.7,323 		"/>
		<polygon class="st23" points="518,302.2 509.7,303.7 500.7,323 506.2,295.7 		"/>
		<polygon class="st23" points="496.4,293.9 492.7,312.7 489.3,297.7 483.5,293.6 		"/>
		<polygon class="st24" points="519.9,370.4 524.4,382.7 506.8,397.4 488.5,364 		"/>
		<polygon class="st25" points="497.2,290.3 484.2,289.4 483.5,293.6 496.4,293.9 		"/>
		<polygon class="st25" points="506.9,292 519.5,298.2 518,302.2 506.2,295.7 		"/>
		<polygon class="st24" points="516.1,335.7 477.1,328.3 492,341.8 		"/>
		<polygon class="st26" points="505.5,336.1 484.6,332 492.6,340 		"/>
		<polygon class="st25" points="529.2,250.4 554.8,267.6 543.7,273.5 534.3,272.7 503.5,279.3 513.8,264 		"/>
		<polygon class="st27" points="554.8,267.6 576.7,283.6 562.7,287.7 554.5,287.7 534.3,272.7 		"/>
		<polygon class="st28" points="576.7,283.6 562.3,322.7 548.5,316.3 541.8,332.4 530.6,326.4 554.5,287.7 		"/>
		<polygon class="st29" points="503.5,279.3 529.2,250.4 484.4,262.7 		"/>
		<polygon class="st30" points="546.2,364 566.2,374.6 562.3,458.1 560.3,463.1 561.8,469.8 500.7,471.9 506.8,397.4 		"/>
		<polygon class="st13" points="546.2,364 541.8,398.4 506.8,397.4 		"/>
		<polygon class="st14" points="484.6,363.4 506.8,397.4 500.7,471 461.1,468.7 454.5,434.8 467.1,360 		"/>
		<polygon class="st31" points="501.9,457.4 561.8,469.8 562.3,458.1 523.6,451.6 		"/>
		<polygon class="st23" points="524.6,433.9 514.1,427.9 512.6,433.9 		"/>
		<polygon class="st12" points="506.8,397.4 475.1,381.5 488.5,364 		"/>
		<polygon class="st12" points="566.2,374.6 578.2,459.4 558.1,439.1 547.7,422.5 		"/>
		<polygon class="st32" points="493.4,434.6 491.9,420.5 498.6,420.5 505,418.7 516.4,423.6 514.5,433.9 		"/>
		<polygon class="st19" points="517.8,422.5 510.2,421.3 505,418.7 503.7,434.6 514.5,433.9 		"/>
		<polygon class="st22" points="524.6,433.9 531,444.9 526.5,454.5 501.9,457.4 501.9,445.6 503.8,433.9 		"/>
		<polygon class="st23" points="503.8,433.9 493.4,434.6 494.2,449 501.9,457.4 		"/>
		<polygon class="st13" points="578.2,459.4 523.4,454.9 524.6,433.9 547.7,422.5 		"/>
		<polygon class="st20" points="517.8,422.5 505,418.7 491.9,420.5 504.5,424.8 		"/>
		<polygon class="st20" points="524.4,487.4 504.1,550.3 488.5,540.9 479.5,531.5 460,471.9 		"/>
		<polygon class="st33" points="561.8,469.8 535.5,486.5 508.4,497.7 460,471.9 		"/>
		<polygon class="st19" points="561.8,469.8 561.2,536 548.5,543.5 534.8,547.4 508.4,497.7 		"/>
		<polygon class="st31" points="561.2,536 571,556.9 534.7,557.4 534.8,547.4 		"/>
		<polygon class="st31" points="504.1,550.3 463,550.3 479.5,531.6 		"/>
		<rect x="463" y="550.3" class="st15" width="41.1" height="2.5"/>
		<rect x="534.7" y="556.8" class="st15" width="36.3" height="2.5"/>
		<polygon class="st13" points="454.5,434.8 428,414.5 456,377.1 465.2,391.7 		"/>
		<polygon class="st23" points="456,377.1 465.2,357.3 479.5,377.1 465.2,391.7 		"/>
		<polygon class="st34" points="465.2,357.3 479.5,350.9 488.5,364 479.5,377.1 		"/>
		<polygon class="st34" points="496.4,293.9 506.2,295.7 500.7,323 491,321.1 		"/>
		<polygon class="st30" points="500.7,471 454.5,434.8 460,471.9 		"/>
		<circle cx="488.5" cy="301.2" r="3.4"/>
		<circle cx="511.2" cy="306.4" r="3.4"/>
	</g>
	<g id="intp_copy_5">
		<polygon class="st11" points="1.1,577.7 88.5,566.5 166.9,580.2 82.5,594.6 		"/>
		<polygon class="st35" points="36.9,403 10.8,462.4 27.1,457.6 36.8,450.9 38,429.9 		"/>
		<polygon class="st36" points="10.8,462.4 38,490 36.8,450.9 		"/>
		<polygon class="st22" points="148.2,408.2 142,385.5 148.2,383.3 152.8,393.6 152.8,400.8 		"/>
		<polygon class="st22" points="156.1,383.3 161.8,363.2 166.8,364.3 164,386 159.9,386 		"/>
		<polygon class="st36" points="140.6,421.1 136.9,431.8 127.3,443.8 119.7,440.4 115.8,420.3 117.2,398.4 		"/>
		<polygon class="st35" points="127.3,443.8 148.2,408.2 157.2,408.8 167.2,416 152,455.4 		"/>
		<polygon class="st23" points="148.2,408.2 167.2,416 173.1,400.8 162.9,395.1 152.8,393.6 		"/>
		<polygon class="st34" points="152.8,393.6 156.1,383.3 177,390.3 173.1,400.8 		"/>
		<polygon class="st37" points="111.8,518 100.2,542.5 96.7,556.2 93.7,563.7 82.4,571.3 69,576.8 70,569.4 72.3,546.3 80.1,518 
			94.3,515.1 		"/>
		<polygon class="st38" points="94.4,562 108.7,579.2 69.3,579.2 69,576.8 		"/>
		<polygon class="st38" points="75.3,543.2 96.7,556.2 111.8,518 94.7,515.8 80.1,518 75.9,529.1 		"/>
		<polygon class="st39" points="80.1,518 75.3,530.9 75.3,543.2 69,576.8 55.4,572 45.2,563.7 36.6,518 61.5,515.8 		"/>
		<polygon class="st38" points="45.2,563.7 36.6,579.2 69.3,579.2 69,576.8 		"/>
		<polygon class="st37" points="36.6,518 75.3,543.2 80.1,518 59.4,515.1 		"/>
		<polygon class="st40" points="97.4,387.8 57.2,384.5 51,395.1 36.9,403 36.6,518 91.4,518 119.4,515.1 117.2,398.4 		"/>
		<polygon class="st38" points="61.2,392.8 65.3,412.5 91.7,429.9 98.7,404.8 97.4,387.8 92,388.3 82.1,395.1 		"/>
		<polygon class="st39" points="57.2,384.5 51,395.1 70.1,411.4 82.1,395.1 95,405.5 97.4,387.8 91.2,381.1 		"/>
		<polygon class="st22" points="131.6,364.3 93.1,375.4 82.1,395.1 69,385.4 57.2,384.5 58.2,373.1 54.1,367 52.2,356.4 46.7,357.2 
			37.2,342.6 45.5,336 58.7,346.2 64.9,341.2 42.3,302.7 54.3,290 96.7,286.2 108.9,277.9 124.7,328.1 		"/>
		<polygon class="st23" points="113.4,303.9 100.4,317.5 98.7,340.6 85,318.8 70.1,312.1 86.5,308.1 92,309.3 97.4,305.6 
			102.6,301.4 		"/>
		<polygon class="st41" points="96.2,298.4 113.4,303.9 97.4,305.6 		"/>
		<polygon class="st41" points="86.5,308.1 70.1,312.1 84.1,301 		"/>
		<polygon class="st34" points="97.4,305.6 105.9,338.8 98.7,340.6 86.5,308.1 		"/>
		<polygon class="st24" points="105.9,338.8 103.7,344.5 98.7,340.6 		"/>
		<polygon class="st24" points="113.2,347.9 86.7,351.1 96.2,362.8 112,359.4 		"/>
		<polygon class="st24" points="44.1,342.4 53.8,348.1 46.1,348.8 		"/>
		<polygon class="st24" points="51,356.6 58.6,355.4 54.1,367 		"/>
		<polygon class="st24" points="131.6,364.3 84.1,373.5 73.2,373.9 82.1,395.1 94,376.9 		"/>
		<polygon class="st23" points="54.3,290 70.1,312.1 84.1,373.5 76,374.9 82.1,395.1 57.2,384.5 54.1,367 51,356.6 58.6,355.4 
			58.7,346.2 64.9,341.2 42.3,302.7 		"/>
		<polygon class="st25" points="117.9,270.9 108.9,277.9 97.3,287.8 92,270.5 93.3,253.2 		"/>
		<polygon class="st42" points="93.3,253.2 33.2,281.2 44,288.5 55.5,291 97.3,287.8 		"/>
		<polygon class="st43" points="55.5,291 44,302.7 35.5,302.8 28.3,299.4 33.2,281.2 		"/>
		<polygon class="st25" points="44,302.7 66.7,341.9 58.9,347.4 45.7,337 38.1,342.8 43.3,352 18.2,340.9 28.3,299.4 		"/>
		<polygon class="st24" points="58.6,355.4 54.1,367 51,356.6 		"/>
		<polygon class="st44" points="91.7,429.9 47.7,415.9 51,395.1 		"/>
		<polygon class="st35" points="91.7,429.9 91.4,518 124.2,518 117.2,398.4 107.7,396.3 97.4,387.8 		"/>
		<polygon class="st40" points="97.4,387.8 117.2,398.4 91.7,429.9 		"/>
		
			<rect x="98.7" y="442" transform="matrix(0.7071 -0.7071 0.7071 0.7071 -285.1868 202.9485)" class="st45" width="7.4" height="7.5"/>
		
			<rect x="98.7" y="468.2" transform="matrix(0.7072 -0.707 0.707 0.7072 -303.6433 210.5411)" class="st45" width="7.4" height="7.5"/>
		
			<rect x="98.7" y="494.3" transform="matrix(0.7071 -0.7071 0.7071 0.7071 -322.1968 218.2785)" class="st45" width="7.4" height="7.5"/>
		
			<rect x="54.8" y="420.6" transform="matrix(0.946 -0.3241 0.3241 0.946 -136.9156 42.0084)" class="st45" width="5.6" height="22.9"/>
		<rect x="49.6" y="440.4" class="st46" width="29.8" height="4.8"/>
		<polygon class="st26" points="92.2,353.2 110.7,350 93.4,356.5 		"/>
		<polygon class="st25" points="110.7,350 112,356.5 94.3,359.5 93.4,356.5 		"/>
		<circle cx="85.1" cy="324.8" r="3.4"/>
		<circle cx="108.2" cy="319.4" r="3.4"/>
		<rect x="69" y="579.2" class="st47" width="39.7" height="4.1"/>
		<rect x="36.6" y="579.2" class="st47" width="32.7" height="4.1"/>
	</g>
	<g id="Warstwa_6_copy_5">
		<polygon class="st48" points="405.9,371.5 412.8,405.6 401,388.1 393.1,370.6 		"/>
		<polygon class="st11" points="375.3,570.1 307.8,565.4 390.2,552.6 460.5,556 		"/>
		<polygon class="st22" points="422.1,557.3 435.7,556.5 417.7,538 408.7,540.2 408.1,545.5 409.6,557.3 		"/>
		<polygon class="st48" points="387.7,416.9 412.8,405.6 402.3,441.8 384.1,441.8 358.6,437.7 		"/>
		<polygon class="st49" points="341.1,396.5 358.6,437.7 389,419.3 399.9,414.3 412.8,405.6 393.1,370.6 		"/>
		<polygon class="st22" points="414.5,269.6 413.8,274.3 422.2,308 434.2,339.2 417.8,344.7 404,351.2 395.1,364.2 388.8,378.2 
			355.3,262.3 394.5,256.5 409.7,262.3 412.8,265.5 417.8,266.2 		"/>
		<polygon class="st22" points="388.4,356.8 370.5,282.4 374.2,274.6 376.2,275.5 385.4,261.6 397.8,266.4 405.9,270.3 413.8,274.3 
			434.2,339.2 404,351.2 		"/>
		<polygon class="st23" points="368.9,323.6 370.9,346 374.3,354.6 379,360.4 385.8,359.6 388.4,356.8 370.6,282.5 		"/>
		<polygon class="st24" points="388.4,356.8 404,351.2 388.8,378.2 379,360.4 		"/>
		<polygon class="st50" points="405.9,270.3 397.8,266.4 385.4,261.6 380.2,247.5 409.7,262.3 413.9,274.3 		"/>
		<polygon class="st51" points="385.4,261.6 376.2,275.5 370.6,282.5 358.6,286.7 346.9,290.8 335.1,294.8 323.3,298.9 327.3,290.8 
			338.4,261.4 380.2,247.5 		"/>
		<polygon class="st52" points="366.7,290.6 319.9,356.3 323.3,298.9 335.1,294.8 346.9,290.8 358.9,286.6 370.6,282.5 		"/>
		<polygon class="st23" points="415.5,287.9 404.5,307.7 398.3,291 		"/>
		<polygon class="st23" points="403.4,317.6 392,304.2 379.6,302.7 394.3,291.8 		"/>
		<polygon class="st24" points="403.4,317.6 406.6,320.7 407.6,316.3 		"/>
		<polygon class="st48" points="379.6,302.7 380.5,297.9 394.3,291.8 		"/>
		<polygon class="st48" points="415.5,287.9 414.1,285.3 398.3,291 		"/>
		<polygon class="st34" points="398.3,291 407.6,316.3 403.4,317.6 394.3,291.8 		"/>
		<polygon class="st50" points="370.5,282.4 370.9,346 370.4,401.1 355.3,402.7 366.7,290.6 		"/>
		<polygon class="st51" points="366.7,290.6 319.9,356.3 304.5,378.5 327.2,390.4 364.7,310.4 		"/>
		<polygon class="st51" points="370.4,401.1 398.8,396.6 388.8,378.2 370.9,346 		"/>
		<polygon class="st52" points="363.9,347.1 358.5,371.2 355.3,402.7 327.2,390.4 364.7,310.4 		"/>
		<polygon class="st53" points="410.5,336.8 393.1,332.5 409.2,332 421.6,323.4 		"/>
		<polygon class="st54" points="409.2,332 393.1,332.5 399.6,331 405,327.9 409.5,326.4 416.5,325.2 421.6,323.4 		"/>
		<rect x="407.3" y="263.8" transform="matrix(0.4338 -0.901 0.901 0.4338 -8.6305 522.9311)" class="st55" width="9" height="9"/>
		<rect x="395.4" y="267.9" transform="matrix(0.4338 -0.901 0.901 0.4338 -19.0409 514.5558)" class="st56" width="9" height="9"/>
		<rect x="383.6" y="271.9" transform="matrix(0.4338 -0.901 0.901 0.4338 -29.3229 506.2007)" class="st55" width="9" height="9"/>
		<rect x="371.8" y="276.1" transform="matrix(0.4338 -0.901 0.901 0.4338 -39.7571 497.9745)" class="st56" width="9" height="9"/>
		<rect x="360.1" y="280.1" transform="matrix(0.4338 -0.901 0.901 0.4338 -50.02 489.6186)" class="st55" width="9" height="9"/>
		<rect x="348.4" y="284.2" transform="matrix(0.4338 -0.901 0.901 0.4338 -60.3096 481.4203)" class="st56" width="9" height="9"/>
		<rect x="336.6" y="288.2" transform="matrix(0.4338 -0.901 0.901 0.4338 -70.5815 473.0701)" class="st55" width="9" height="9"/>
		<rect x="324.8" y="292.3" transform="matrix(0.4338 -0.901 0.901 0.4338 -80.9382 464.7869)" class="st56" width="9" height="9"/>
		<polygon class="st49" points="370.7,319.7 363.2,324.7 364.7,310.4 370.6,306.3 		"/>
		<polygon class="st57" points="370.8,330.3 362.1,335.1 363.2,324.7 370.7,319.7 		"/>
		<polygon class="st49" points="370.9,341.2 361,346.7 362.1,335.1 370.8,330.3 		"/>
		<polygon class="st57" points="370.9,353 359.7,359.4 361,346.7 370.9,341.2 		"/>
		<polygon class="st49" points="370.8,364.4 358.5,371.2 359.7,359.4 370.9,353 		"/>
		<polygon class="st23" points="422.1,557.3 433.4,549.2 442,557.3 		"/>
		<polygon class="st24" points="411.7,538 407.4,539.6 408.1,545.5 417.7,538 		"/>
		<polygon class="st22" points="366,564.2 374,565.7 365.3,552.8 361.4,547.6 351.1,548.7 348.7,566.5 		"/>
		<polygon class="st23" points="348.7,566.5 364.4,559.5 374,565.7 		"/>
		<polygon class="st24" points="357.3,547.1 351.1,548.7 365.3,552.8 361.5,547.1 		"/>
		<polygon class="st57" points="332,423 323.3,438.2 358.6,437.7 362.2,424.3 339.3,420.5 		"/>
		<polygon class="st48" points="355.3,402.8 323.3,438.2 327.2,390.4 		"/>
		<polygon class="st22" points="358.6,437.7 372.9,439.1 380.7,424.3 362.1,424.3 		"/>
		<polygon class="st58" points="402.3,441.8 402.3,448.1 404.2,453.6 408.1,478.2 375.4,470.3 345.3,456.9 349.8,450.3 356,444.2 
			358.6,437.7 		"/>
		<polygon class="st59" points="382.4,499.7 349.2,514.6 345.3,456.9 408.1,478.2 		"/>
		<polygon class="st60" points="408.1,478.2 417.7,538 383.5,529.1 349.2,514.6 		"/>
		<polygon class="st59" points="417.7,538 351.1,548.7 349.2,514.6 		"/>
		<polygon class="st24" points="378.8,427.8 372.9,439.1 365.4,438.3 373.7,426.4 		"/>
		<polygon class="st11" points="358.6,437.7 402.3,441.8 404.2,453.6 393.5,448.1 373.2,460.9 370.1,460.1 365.3,445.4 349.8,450.3 
					"/>
		<polygon class="st57" points="412.8,405.6 422.1,421.9 399.9,430.9 394.2,423.2 393.5,416.7 		"/>
		<polygon class="st23" points="399.9,430.9 388.6,435.9 386.6,426.6 389,419.3 393.8,416.6 		"/>
		<polygon class="st24" points="388.4,421.3 382,426.4 383,437.9 391.5,434.6 		"/>
		
			<rect x="375.2" y="415.5" transform="matrix(0.2602 -0.9656 0.9656 0.2602 -125.03 680.6153)" class="st8" width="12.9" height="12.9"/>
		<polygon class="st48" points="374.5,444.9 370.1,460.1 373.2,460.9 377.1,445.7 		"/>
		<polygon class="st52" points="377.1,414 370.4,401.1 388.8,398.2 383.3,415.7 		"/>
		<polygon class="st52" points="375.1,421.4 352.2,418 362,404.8 376.4,416.7 		"/>
		<polygon class="st52" points="373.7,426.4 376.6,427.2 365.4,438.3 354.1,423.2 374.4,424 		"/>
		<polygon class="st52" points="383.2,429 385.5,447.9 370.6,443.7 378.8,427.8 		"/>
		<polygon class="st52" points="387.1,426.3 402.3,441.8 393.5,448.1 386.2,429.8 		"/>
		<polygon class="st52" points="388.4,421.3 414.4,424.8 408.6,435.6 387.7,424.2 		"/>
		<polygon class="st52" points="389.5,417.4 385.3,416.2 402.3,401.9 410.4,414.5 389,419.3 		"/>
		
			<rect x="377.1" y="417.4" transform="matrix(0.8667 -0.4988 0.4988 0.8667 -159.5913 246.5829)" class="st61" width="9.1" height="9.1"/>
		<circle cx="411.4" cy="298.9" r="3.4"/>
		<circle cx="388.8" cy="307.1" r="3.4"/>
	</g>
	<g id="Warstwa_5_copy_5">
		<polygon class="st23" points="200.9,418.6 199.2,428.1 193,435.2 183.7,436.2 199.9,394.2 		"/>
		<polygon class="st23" points="251.6,500.5 254.5,527.3 243.4,557 247.3,571.5 232.9,572.6 228.8,571.2 236.1,557.5 235.5,525.3 		
			"/>
		<polygon class="st24" points="245.4,514 235.5,525.3 235.7,532.7 254.5,527.3 		"/>
		<polygon class="st11" points="211.8,582.1 151.2,569.5 214.9,561.7 281.8,571.7 		"/>
		<polygon class="st62" points="228.8,571.2 237,570.1 247.3,571.5 247.3,575.2 228.7,574.9 		"/>
		<polygon class="st22" points="250.9,394.4 248.3,412 258.6,427.7 267,433.8 279.5,437.5 254.5,384.5 		"/>
		<polygon class="st62" points="189.2,564.8 201.7,562.2 201.4,569.1 175.8,569.1 		"/>
		<polygon class="st23" points="222.7,512.1 201.2,553.8 201.7,562.2 183,567.2 178.6,566.7 175.4,565.6 194.1,552.1 197.8,521.3 
			200.4,509.1 		"/>
		<polygon class="st24" points="175.8,569.1 171.9,564.1 175.4,565.6 183,567.2 		"/>
		<polygon class="st63" points="182.5,560.4 185,566.7 188.4,565.7 185.4,558.3 		"/>
		<polygon class="st24" points="228.8,571.2 235.6,568.6 247.3,571.5 		"/>
		<polygon class="st63" points="232.2,564.9 246,566.9 245.2,563.9 233.5,562.3 		"/>
		<polygon class="st24" points="216.9,523.3 208.1,518.3 197.8,521.3 213.2,530.6 		"/>
		<polygon class="st64" points="193.5,308.9 189.8,329.4 172.9,323.8 176.8,311.7 		"/>
		<polygon class="st65" points="199.1,296.6 189.8,329.4 171.5,304.3 191.9,288.2 		"/>
		<polygon class="st28" points="189.8,329.4 198.3,321.4 190.7,311.9 171.5,304.3 		"/>
		<polygon class="st28" points="260.6,334.2 244.3,373.2 275.3,383.3 314.7,355.2 311.2,342.7 302.7,334.3 		"/>
		<polygon class="st64" points="245.4,359.7 241.8,378.1 275.3,383.3 		"/>
		<polygon class="st28" points="261.1,353.1 256.6,343.8 249.7,363 275.3,383.3 270.3,371 		"/>
		<polygon class="st66" points="192.1,328.3 189.7,331.8 186.4,336.3 189.3,338.8 188.9,346.3 177.8,337.1 190.3,320.3 		"/>
		<polygon class="st22" points="241.6,322.5 191.9,288.2 187.8,368 213.2,369.6 212.3,389.4 230.7,399.3 245.6,368 258,347.2 		"/>
		<polygon class="st23" points="245.7,325.5 258,347.2 250.9,356.2 250.1,362.3 230.7,399.3 221.1,395.7 212.3,392.5 214,378.9 
			213.2,369.6 230.3,370.5 234.5,337.8 		"/>
		<polygon class="st23" points="194.5,313 197.4,317.6 204.5,330.9 205.3,314.5 203.7,311.8 		"/>
		<polygon class="st23" points="210.3,336.9 215.3,326.4 227.2,316.2 215.7,312.2 211.1,314.8 		"/>
		<polygon class="st24" points="191.9,288.2 215.7,312.2 243.4,334 243.7,343.7 234,340.7 191.6,293.4 		"/>
		<polygon class="st24" points="238.5,337.3 251.6,332.4 258,347.2 250.1,362.3 241.2,352.2 		"/>
		<polygon class="st29" points="293.1,339.2 302.7,334.3 315,340.2 314.7,355.2 		"/>
		<polygon class="st25" points="250.4,332.3 270.3,371 314.7,355.2 302.7,334.3 		"/>
		<polygon class="st28" points="235.9,333.1 242,336.5 262.5,344.5 277.5,359.6 316.1,320.8 274.5,313.7 		"/>
		<polygon class="st27" points="275.4,317.1 276.1,312.9 316.1,320.8 278.6,323.1 		"/>
		<polygon class="st65" points="251.5,300.1 278.6,323.1 267.2,275.9 227.1,275.2 		"/>
		<polygon class="st25" points="239.2,304.8 286.6,330.6 266.7,333.4 254.7,337.8 242,336.8 234.5,337.8 184.8,280 		"/>
		<polygon class="st29" points="286.6,330.6 213.9,262.9 184.8,280 		"/>
		<polygon class="st28" points="203.7,311.8 194.7,312.6 203.2,305.7 		"/>
		<polygon class="st34" points="210.3,336.9 204.2,336.5 205.3,314.5 211.1,314.8 		"/>
		<polygon class="st24" points="204.2,336.5 206.9,340.4 210.3,336.9 		"/>
		<polygon class="st66" points="206.1,364 193,345.6 206.9,342 227.5,346.4 		"/>
		<polygon class="st25" points="209.9,356.9 204.3,356.7 197.5,347 221.4,347.5 		"/>
		<polygon class="st26" points="221.4,347.5 197.5,347 200.9,351.9 215.6,352.2 		"/>
		<polygon class="st66" points="247.6,340.5 247.3,346.4 258,347.2 261.1,353.1 241.2,352.2 241.8,336.8 		"/>
		<polygon class="st24" points="212.3,392.5 235.9,370.8 213.2,369.6 		"/>
		<polygon class="st65" points="292.8,344.2 314.7,355.2 302.7,334.3 		"/>
		<polygon class="st64" points="254.8,335 241.8,336.8 258,347.2 277.5,359.6 266.7,333.4 		"/>
		<polygon class="st22" points="216.8,406.5 199.9,394.2 254.5,384.5 		"/>
		<polygon class="st63" points="217,403.1 225.5,412.2 245.1,425.9 254.5,384.5 		"/>
		<polygon class="st63" points="208.7,415 199.2,428.1 199.9,394.2 217,403.1 		"/>
		<polygon class="st62" points="217,403.1 199.2,428.1 207.6,450.5 244.5,440.5 245.1,425.9 		"/>
		<polygon class="st67" points="260.4,463.4 232.2,478.5 202.3,487.7 206.3,459.7 209.4,456.4 207.6,450.5 244.5,440.5 		"/>
		<polygon class="st68" points="254.7,527.3 227.2,509.1 202.3,487.7 260.4,463.4 		"/>
		<polygon class="st69" points="254.7,527.3 197.8,521.3 202.3,487.7 		"/>
		<polygon class="st69" points="221.4,442.3 207.6,450.5 206.3,459.7 217,463.4 247.2,444.3 		"/>
		<polygon class="st24" points="212.9,449.1 207.6,450.5 217,459 227.5,447.6 		"/>
		<circle cx="218.1" cy="324" r="3.4"/>
		<circle cx="198.3" cy="323.2" r="3.4"/>
		<polygon class="st23" points="279.5,437.5 235.9,446.7 233.5,442.3 235.9,437.5 258.6,427.7 		"/>
		<polygon class="st22" points="235.9,446.7 212.9,449.1 215.7,431 235.9,437.5 		"/>
		<polygon class="st22" points="199.2,428.1 207.2,440 210.2,445 207.6,450.5 183.7,436.2 		"/>
		<polygon class="st23" points="207.6,450.5 212.9,449.1 215.7,431 207.2,440 		"/>
	</g>
</g>
<g>
	<path class="st70" d="M168.3,162.7h-1.2c-0.1,0-0.1,0-0.1-0.1v-6.7c0,0,0-0.1-0.1-0.1h-2.1c-0.1,0-0.1,0-0.1-0.1v-1
		c0-0.1,0-0.1,0.1-0.1h5.8c0.1,0,0.1,0,0.1,0.1v1c0,0.1,0,0.1-0.1,0.1h-2.1c0,0-0.1,0-0.1,0.1v6.7
		C168.4,162.7,168.4,162.7,168.3,162.7z"/>
	<path class="st70" d="M179.4,162.6v-7.9c0-0.1,0-0.1,0.1-0.1h5.1c0.1,0,0.1,0,0.1,0.1v1c0,0.1,0,0.1-0.1,0.1h-3.7
		c0,0-0.1,0-0.1,0.1v2c0,0,0,0.1,0.1,0.1h3.2c0.1,0,0.1,0,0.1,0.1v1c0,0.1,0,0.1-0.1,0.1h-3.2c0,0-0.1,0-0.1,0.1v2.1
		c0,0,0,0.1,0.1,0.1h3.7c0.1,0,0.1,0,0.1,0.1v1c0,0.1,0,0.1-0.1,0.1h-5.1C179.4,162.7,179.4,162.7,179.4,162.6z"/>
	<path class="st70" d="M196.2,162.9c-0.6,0-1.1-0.1-1.7-0.3c-0.5-0.2-1-0.5-1.3-0.8c-0.1-0.1-0.1-0.1,0-0.2l0.7-0.9
		c0.1-0.1,0.1-0.1,0.2,0c0.7,0.6,1.5,0.9,2.2,0.9c0.5,0,0.9-0.1,1.1-0.3c0.3-0.2,0.4-0.5,0.4-0.9c0-0.3-0.1-0.6-0.3-0.7
		s-0.6-0.3-1.2-0.4l-0.4-0.1c-1.6-0.2-2.5-1-2.5-2.3c0-0.7,0.2-1.3,0.8-1.8c0.5-0.4,1.2-0.7,2-0.7c1,0,1.9,0.3,2.6,0.8
		c0.1,0,0.1,0.1,0,0.2l-0.6,0.9c0,0.1-0.1,0.1-0.2,0c-0.6-0.4-1.3-0.6-2-0.6c-0.4,0-0.7,0.1-0.9,0.3c-0.2,0.2-0.3,0.5-0.3,0.8
		c0,0.6,0.5,1,1.5,1.1l0.4,0.1c1.6,0.2,2.4,1,2.4,2.4c0,0.8-0.3,1.4-0.8,1.8C198,162.6,197.2,162.9,196.2,162.9z"/>
	<path class="st70" d="M211.1,162.7h-1.2c-0.1,0-0.1,0-0.1-0.1v-6.7c0,0,0-0.1-0.1-0.1h-2.1c-0.1,0-0.1,0-0.1-0.1v-1
		c0-0.1,0-0.1,0.1-0.1h5.8c0.1,0,0.1,0,0.1,0.1v1c0,0.1,0,0.1-0.1,0.1h-2.1c0,0-0.1,0-0.1,0.1v6.7
		C211.2,162.7,211.2,162.7,211.1,162.7z"/>
	<path class="st70" d="M232.3,162.6v-7.9c0-0.1,0-0.1,0.1-0.1h2.9c1.4,0,2.3,0.6,2.7,1.8c0.1,0.4,0.2,1.2,0.2,2.3
		c0,1.1-0.1,1.8-0.2,2.3c-0.4,1.2-1.3,1.8-2.7,1.8h-2.9C232.3,162.7,232.3,162.7,232.3,162.6z M233.7,161.4
		C233.7,161.4,233.7,161.5,233.7,161.4l1.3,0.1c0.9,0,1.5-0.3,1.7-1c0.1-0.3,0.1-0.9,0.1-1.8s0-1.5-0.1-1.8c-0.2-0.7-0.8-1-1.7-1
		h-1.2c0,0-0.1,0-0.1,0.1V161.4z"/>
	<path class="st70" d="M247.2,162.6v-7.9c0-0.1,0-0.1,0.1-0.1h5.1c0.1,0,0.1,0,0.1,0.1v1c0,0.1,0,0.1-0.1,0.1h-3.7
		c0,0-0.1,0-0.1,0.1v2c0,0,0,0.1,0.1,0.1h3.2c0.1,0,0.1,0,0.1,0.1v1c0,0.1,0,0.1-0.1,0.1h-3.2c0,0-0.1,0-0.1,0.1v2.1
		c0,0,0,0.1,0.1,0.1h3.7c0.1,0,0.1,0,0.1,0.1v1c0,0.1,0,0.1-0.1,0.1h-5.1C247.3,162.7,247.2,162.7,247.2,162.6z"/>
	<path class="st70" d="M273.1,162.7h-1.2c-0.1,0-0.1,0-0.1-0.1v-7.9c0-0.1,0-0.1,0.1-0.1h3.1c0.8,0,1.4,0.2,1.9,0.7s0.8,1.1,0.8,1.8
		c0,0.8-0.2,1.4-0.8,1.8c-0.5,0.5-1.1,0.7-1.9,0.7h-1.7c0,0-0.1,0-0.1,0.1v2.9C273.2,162.7,273.2,162.7,273.1,162.7z M274.9,158.4
		c0.4,0,0.7-0.1,1-0.3s0.4-0.5,0.4-0.9c0-0.4-0.1-0.7-0.4-0.9s-0.6-0.3-1-0.3h-1.6c0,0-0.1,0-0.1,0.1v2.4c0,0,0,0.1,0.1,0.1H274.9z"
		/>
	<path class="st70" d="M286.4,162.6v-7.9c0-0.1,0-0.1,0.1-0.1h5.1c0.1,0,0.1,0,0.1,0.1v1c0,0.1,0,0.1-0.1,0.1h-3.7
		c0,0-0.1,0-0.1,0.1v2c0,0,0,0.1,0.1,0.1h3.2c0.1,0,0.1,0,0.1,0.1v1c0,0.1,0,0.1-0.1,0.1h-3.2c0,0-0.1,0-0.1,0.1v2.1
		c0,0,0,0.1,0.1,0.1h3.7c0.1,0,0.1,0,0.1,0.1v1c0,0.1,0,0.1-0.1,0.1h-5.1C286.5,162.7,286.4,162.7,286.4,162.6z"/>
	<path class="st70" d="M306.7,162.7h-1.3c-0.1,0-0.1,0-0.2-0.1l-1.6-3.2h-1.4c0,0-0.1,0-0.1,0.1v3.1c0,0.1,0,0.1-0.1,0.1h-1.2
		c-0.1,0-0.1,0-0.1-0.1v-7.9c0-0.1,0-0.1,0.1-0.1h3.2c0.8,0,1.4,0.2,1.9,0.7s0.7,1,0.7,1.8c0,0.5-0.1,1-0.4,1.4
		c-0.3,0.4-0.7,0.7-1.1,0.9l1.7,3.3C306.8,162.6,306.8,162.6,306.7,162.7C306.7,162.7,306.7,162.7,306.7,162.7z M303.9,158.2
		c0.4,0,0.7-0.1,0.9-0.3c0.2-0.2,0.3-0.5,0.3-0.8c0-0.4-0.1-0.6-0.3-0.8c-0.2-0.2-0.5-0.3-0.9-0.3h-1.7c0,0-0.1,0-0.1,0.1v2.2
		c0,0,0,0.1,0.1,0.1H303.9z"/>
	<path class="st70" d="M318.1,162.9c-0.6,0-1.1-0.1-1.7-0.3c-0.5-0.2-1-0.5-1.3-0.8c-0.1-0.1-0.1-0.1,0-0.2l0.7-0.9
		c0.1-0.1,0.1-0.1,0.2,0c0.7,0.6,1.5,0.9,2.2,0.9c0.5,0,0.9-0.1,1.1-0.3c0.3-0.2,0.4-0.5,0.4-0.9c0-0.3-0.1-0.6-0.3-0.7
		c-0.2-0.2-0.6-0.3-1.2-0.4l-0.4-0.1c-1.6-0.2-2.5-1-2.5-2.3c0-0.7,0.2-1.3,0.8-1.8c0.5-0.4,1.2-0.7,2-0.7c1,0,1.9,0.3,2.6,0.8
		c0.1,0,0.1,0.1,0,0.2l-0.6,0.9c0,0.1-0.1,0.1-0.2,0c-0.6-0.4-1.3-0.6-2-0.6c-0.4,0-0.7,0.1-0.9,0.3c-0.2,0.2-0.3,0.5-0.3,0.8
		c0,0.6,0.5,1,1.5,1.1l0.4,0.1c1.6,0.2,2.4,1,2.4,2.4c0,0.8-0.3,1.4-0.8,1.8C319.9,162.6,319.1,162.9,318.1,162.9z"/>
	<path class="st70" d="M332.9,162.9c-0.7,0-1.3-0.2-1.8-0.5s-0.9-0.8-1.1-1.5c-0.1-0.4-0.2-1.2-0.2-2.2s0.1-1.8,0.2-2.2
		c0.2-0.6,0.6-1.1,1.1-1.5s1.1-0.5,1.8-0.5c0.7,0,1.3,0.2,1.8,0.5s0.9,0.8,1.1,1.5c0.1,0.4,0.2,1.2,0.2,2.2s-0.1,1.8-0.2,2.2
		c-0.2,0.6-0.6,1.1-1.1,1.5S333.6,162.9,332.9,162.9z M332.9,161.6c0.8,0,1.3-0.4,1.5-1.1c0.1-0.3,0.1-0.9,0.1-1.9
		c0-0.9,0-1.6-0.1-1.9c-0.2-0.7-0.8-1.1-1.5-1.1c-0.8,0-1.3,0.4-1.5,1.1c-0.1,0.3-0.1,0.9-0.1,1.9c0,1,0,1.6,0.1,1.9
		C331.6,161.2,332.1,161.6,332.9,161.6z"/>
	<path class="st70" d="M345,162.6v-7.9c0-0.1,0-0.1,0.1-0.1h1.1c0.1,0,0.2,0,0.2,0.1l3.3,5.6h0v-5.6c0-0.1,0-0.1,0.1-0.1h1
		c0.1,0,0.1,0,0.1,0.1v7.9c0,0.1,0,0.1-0.1,0.1h-1.1c-0.1,0-0.2,0-0.2-0.1l-3.3-5.6h0v5.6c0,0.1,0,0.1-0.1,0.1h-1
		C345.1,162.7,345,162.7,345,162.6z"/>
	<path class="st70" d="M359.7,162.6l2.8-7.9c0-0.1,0.1-0.1,0.2-0.1h1.1c0.1,0,0.1,0,0.2,0.1l2.8,7.9c0,0.1,0,0.1-0.1,0.1h-1.2
		c-0.1,0-0.1,0-0.2-0.1l-0.5-1.6h-3.1l-0.5,1.6c0,0.1-0.1,0.1-0.2,0.1h-1.2C359.7,162.7,359.6,162.7,359.7,162.6z M362,159.8h2.2
		l-1.1-3.2h0L362,159.8z"/>
	<path class="st70" d="M375.2,162.6v-7.9c0-0.1,0-0.1,0.1-0.1h1.2c0.1,0,0.1,0,0.1,0.1v6.7c0,0,0,0.1,0.1,0.1h3.7
		c0.1,0,0.1,0,0.1,0.1v1c0,0.1,0,0.1-0.1,0.1h-5.1C375.2,162.7,375.2,162.7,375.2,162.6z"/>
	<path class="st70" d="M389.2,162.6v-7.9c0-0.1,0-0.1,0.1-0.1h1.2c0.1,0,0.1,0,0.1,0.1v7.9c0,0.1,0,0.1-0.1,0.1h-1.2
		C389.2,162.7,389.2,162.7,389.2,162.6z"/>
	<path class="st70" d="M399.8,162.6v-7.9c0-0.1,0-0.1,0.1-0.1h2.9c1.4,0,2.3,0.6,2.7,1.8c0.1,0.4,0.2,1.2,0.2,2.3
		c0,1.1-0.1,1.8-0.2,2.3c-0.4,1.2-1.3,1.8-2.7,1.8h-2.9C399.9,162.7,399.8,162.7,399.8,162.6z M401.2,161.4
		C401.2,161.4,401.3,161.5,401.2,161.4l1.3,0.1c0.9,0,1.5-0.3,1.7-1c0.1-0.3,0.1-0.9,0.1-1.8s0-1.5-0.1-1.8c-0.2-0.7-0.8-1-1.7-1
		h-1.2c0,0-0.1,0-0.1,0.1V161.4z"/>
	<path class="st70" d="M413.8,162.6l2.8-7.9c0-0.1,0.1-0.1,0.2-0.1h1.1c0.1,0,0.1,0,0.2,0.1l2.8,7.9c0,0.1,0,0.1-0.1,0.1h-1.2
		c-0.1,0-0.1,0-0.2-0.1l-0.5-1.6h-3.1l-0.5,1.6c0,0.1-0.1,0.1-0.2,0.1h-1.2C413.8,162.7,413.8,162.7,413.8,162.6z M416.2,159.8h2.2
		l-1.1-3.2h0L416.2,159.8z"/>
	<path class="st70" d="M429.3,162.6v-7.9c0-0.1,0-0.1,0.1-0.1h2.9c1.4,0,2.3,0.6,2.7,1.8c0.1,0.4,0.2,1.2,0.2,2.3
		c0,1.1-0.1,1.8-0.2,2.3c-0.4,1.2-1.3,1.8-2.7,1.8h-2.9C429.4,162.7,429.3,162.7,429.3,162.6z M430.8,161.4
		C430.8,161.4,430.8,161.5,430.8,161.4l1.3,0.1c0.9,0,1.5-0.3,1.7-1c0.1-0.3,0.1-0.9,0.1-1.8s0-1.5-0.1-1.8c-0.2-0.7-0.8-1-1.7-1
		h-1.2c0,0-0.1,0-0.1,0.1V161.4z"/>
</g>
</svg>
