<?xml version="1.0" encoding="utf-8"?>
<!-- Generator: Adobe Illustrator 25.4.1, SVG Export Plug-In . SVG Version: 6.00 Build 0)  -->
<svg version="1.1" id="Layer_1" xmlns="http://www.w3.org/2000/svg" xmlns:xlink="http://www.w3.org/1999/xlink" x="0px" y="0px"
	 viewBox="0 0 552.4 166.1" style="enable-background:new 0 0 552.4 166.1;" xml:space="preserve">
<style type="text/css">
	.st0{fill:#E21010;}
	.st1{opacity:0.5;fill:#E21010;}
</style>
<g>
	<g>
		<g>
			<path class="st0" d="M213.2,125.7V78.9h-12.7V62.3h12.7v-7c0-7.8,2.4-14,7.3-18.6c4.9-4.6,10.9-6.9,18.2-6.9
				c4.6,0,8.4,0.5,11.4,1.4v16.9c-1.8-0.8-4.1-1.1-6.8-1.1c-3.9,0-6.7,0.8-8.4,2.5c-1.7,1.7-2.5,4.4-2.5,8.2v4.6h17.8v16.6h-17.8
				v46.8H213.2z"/>
			<path class="st0" d="M278.5,127.1c-8.2,0-15.2-3.3-20.9-9.8c-5.7-6.5-8.6-14.3-8.6-23.3c0-9,2.9-16.8,8.6-23.3
				c5.7-6.5,12.7-9.8,20.9-9.8c7.3,0,13,2.6,17.2,7.7v-6.3h19.1v63.4h-19.1v-6.3C291.5,124.5,285.7,127.1,278.5,127.1z M272.3,105.3
				c2.7,3,6.1,4.4,10.5,4.4c4.3,0,7.8-1.5,10.5-4.4c2.7-3,4-6.7,4-11.3s-1.3-8.3-4-11.3c-2.7-3-6.1-4.4-10.5-4.4
				c-4.3,0-7.8,1.5-10.5,4.4c-2.7,3-4,6.7-4,11.3S269.7,102.3,272.3,105.3z"/>
			<path class="st0" d="M355,127.1c-9.6,0-17.5-3.2-23.8-9.6c-6.3-6.4-9.5-14.2-9.5-23.5c0-9.3,3.2-17.1,9.5-23.5
				c6.3-6.4,14.3-9.6,23.8-9.6c8.7,0,15.9,2.4,21.6,7.2c5.7,4.8,9.4,11.1,11.2,18.9H368c-2.8-5.9-7.1-8.9-12.9-8.9
				c-4.1,0-7.5,1.4-10.1,4.2c-2.6,2.8-3.9,6.7-3.9,11.6c0,4.9,1.3,8.8,3.9,11.6c2.6,2.8,6,4.2,10.1,4.2c5.8,0,10.1-3,12.9-8.9h19.8
				c-1.8,7.8-5.5,14.1-11.2,18.9C370.9,124.7,363.7,127.1,355,127.1z"/>
			<path class="st0" d="M425,126.5c-7.4,0-13.5-2-18.3-6.1c-4.8-4.1-7.2-10-7.2-17.8V78.9h-12.7V62.3h12.7V44.7h19.1v17.6h17.7v16.6
				h-17.7v19.7c0,3.8,0.8,6.6,2.5,8.2c1.7,1.7,4.4,2.5,8.2,2.5c2.9,0,5.2-0.4,7-1.1v17C433.6,126.1,429.8,126.5,425,126.5z"/>
			<path class="st0" d="M495.5,117.5c-6.5,6.4-14.4,9.6-23.6,9.6c-9.2,0-17.1-3.2-23.6-9.6c-6.5-6.4-9.8-14.2-9.8-23.5
				c0-9.3,3.3-17.1,9.8-23.5c6.5-6.4,14.4-9.6,23.6-9.6c9.2,0,17.1,3.2,23.6,9.6c6.5,6.4,9.8,14.2,9.8,23.5
				C505.3,103.3,502,111.2,495.5,117.5z M461.9,105.1c2.7,2.8,6,4.2,10.1,4.2s7.4-1.4,10.1-4.2c2.7-2.8,4-6.5,4-11s-1.3-8.2-4-11
				c-2.7-2.8-6-4.2-10.1-4.2s-7.4,1.4-10.1,4.2c-2.7,2.8-4,6.5-4,11S459.2,102.3,461.9,105.1z"/>
			<path class="st0" d="M512,125.7V62.3h19.1v9.5c1-2.9,2.9-5.3,5.7-7.3c2.8-2,5.9-3,9.4-3c2.2,0,4.3,0.3,6.2,0.8v19.4
				c-3-1-5.8-1.5-8.5-1.5c-4.1,0-7.2,1.4-9.4,4.2c-2.2,2.8-3.4,6.6-3.4,11.2v30H512z"/>
		</g>
		<g>
			<path class="st0" d="M146.8,15.2L74.7,0.8C53.2-3.5,32.2,10.5,27.9,32l-6.3,31.6l1.8-0.9c2.5-1.2,5-2.4,7.7-3.7
				c8.6-4.2,18.1-8.7,26.7-11.9c0-0.1,0-0.2,0-0.3l-9.1-4.3l14.2-2.2c9.3-0.9,17.7-1.7,26-1.7c5,0,9.6,0.3,14,0.8
				c6.3,0.8,11.7,3.4,16.9,5.9c5.1,2.5,10,4.8,14.9,4.8c0.6,0,1.1,0,1.7-0.1l8.7-0.9l-1.2,3.7c3.9,1.1,6.9,2.4,10.7,4.6
				c0.2,0.1,0.5,0.3,0.8,0.4c1.7,0.9,4,2.1,5.4,4.3c1.5,2.4,2.5,4.9,3.2,7.4c0.7,2.8,0.8,6,0.9,8.9c0.1,6.3-3.1,13.9-7.6,18.4
				c-5.4,5.3-9,6.4-13.5,7.3c-0.3,0.1-0.7,0.1-1,0.2l-10.5,2.3l4-10c0.4-1,0.6-2.1,0.8-3.3c-1.3,1.2-2.5,2.6-3.4,3.6
				c-4.1,4.4-8.7,9.4-14.7,12.4c-2.2,1.2-4.5,1.8-7,1.8c-1.2,0-2.3-0.2-3.2-0.4c-2.3,1.2-4.3,2.6-5.8,4l-16.3,44.2l30.4,6.1
				c21.5,4.3,42.6-9.8,46.9-31.2L178,62.1C182.3,40.6,168.3,19.5,146.8,15.2z"/>
			<path class="st1" d="M61.8,44.8l8,3.9c0,0.1,0,0.2,0,0.2c-7.7,2.7-16,6.6-23.7,10.2c-2.4,1.1-21.2,10.4-21.2,10.4
				s3.9,1.9,6.4,3.8C20.4,79.9,12,85.1,0,92L18.4,90l23.4-15.9c0,0-4.2-2.6-6.3-3.9C48.1,64.4,70.5,52.6,81.8,51
				c-1.7-0.8-3.7-1.5-5.4-2.1c-0.6-0.2-1.5-0.4-1.5-0.8c5.2-2.4,17.2-5,26.4-4.4C82.3,41.5,61.8,44.8,61.8,44.8z"/>
		</g>
	</g>
</g>
</svg>
