<?xml version="1.0" encoding="utf-8"?>
<!-- Generator: Adobe Illustrator 25.4.1, SVG Export Plug-In . SVG Version: 6.00 Build 0)  -->
<svg version="1.1" id="Layer_1" xmlns="http://www.w3.org/2000/svg" xmlns:xlink="http://www.w3.org/1999/xlink" x="0px" y="0px"
	 viewBox="0 0 552.4 110.6" style="enable-background:new 0 0 552.4 110.6;" xml:space="preserve">
<style type="text/css">
	.st0{fill:#E21010;}
	.st1{fill:#CEA955;}
</style>
<g>
	<g>
		<g>
			<g>
				<path class="st0" d="M142,83.7V52.6h-8.4V41.5h8.4v-4.6c0-5.2,1.6-9.3,4.9-12.4c3.2-3.1,7.3-4.6,12.1-4.6c3,0,5.6,0.3,7.6,0.9
					V32c-1.2-0.5-2.7-0.8-4.6-0.8c-2.6,0-4.4,0.6-5.6,1.7c-1.1,1.1-1.7,3-1.7,5.5v3h11.8v11.1h-11.8v31.2H142z"/>
				<path class="st0" d="M185.4,84.7c-5.5,0-10.1-2.2-13.9-6.5c-3.8-4.3-5.7-9.5-5.7-15.5c0-6,1.9-11.2,5.7-15.5
					c3.8-4.3,8.4-6.5,13.9-6.5c4.8,0,8.7,1.7,11.5,5.2v-4.2h12.7v42.2h-12.7v-4.2C194.1,82.9,190.3,84.7,185.4,84.7z M181.4,70.1
					c1.8,2,4.1,3,7,3c2.9,0,5.2-1,7-3c1.8-2,2.7-4.5,2.7-7.5c0-3-0.9-5.5-2.7-7.5c-1.8-2-4.1-3-7-3c-2.9,0-5.2,1-7,3
					c-1.8,2-2.7,4.5-2.7,7.5C178.7,65.7,179.6,68.2,181.4,70.1z"/>
				<path class="st0" d="M236.4,84.7c-6.4,0-11.7-2.1-15.9-6.4c-4.2-4.2-6.3-9.5-6.3-15.7c0-6.2,2.1-11.4,6.3-15.7
					c4.2-4.2,9.5-6.4,15.9-6.4c5.8,0,10.6,1.6,14.4,4.8c3.8,3.2,6.2,7.4,7.4,12.6h-13.2c-1.9-3.9-4.7-5.9-8.6-5.9
					c-2.8,0-5,0.9-6.8,2.8c-1.7,1.9-2.6,4.5-2.6,7.7c0,3.3,0.9,5.8,2.6,7.7c1.7,1.9,4,2.8,6.8,2.8c3.9,0,6.8-2,8.6-5.9h13.2
					c-1.2,5.2-3.7,9.4-7.4,12.6C247,83,242.2,84.7,236.4,84.7z"/>
				<path class="st0" d="M283.1,84.2c-5,0-9-1.4-12.2-4.1c-3.2-2.7-4.8-6.7-4.8-11.9V52.6h-8.4V41.5h8.4V29.8h12.8v11.7h11.8v11.1
					h-11.8v13.1c0,2.5,0.6,4.4,1.7,5.5c1.1,1.1,3,1.7,5.5,1.7c1.9,0,3.5-0.3,4.6-0.8v11.3C288.8,83.9,286.3,84.2,283.1,84.2z"/>
				<path class="st0" d="M330,78.3c-4.3,4.3-9.6,6.4-15.7,6.4c-6.1,0-11.4-2.1-15.7-6.4c-4.3-4.2-6.5-9.5-6.5-15.7
					c0-6.2,2.2-11.4,6.5-15.7c4.3-4.2,9.6-6.4,15.7-6.4c6.1,0,11.4,2.1,15.7,6.4c4.3,4.3,6.5,9.5,6.5,15.7
					C336.5,68.8,334.3,74,330,78.3z M307.6,70c1.8,1.9,4,2.8,6.7,2.8s4.9-0.9,6.7-2.8c1.8-1.9,2.7-4.3,2.7-7.3c0-3-0.9-5.5-2.7-7.3
					c-1.8-1.9-4-2.8-6.7-2.8s-4.9,0.9-6.7,2.8c-1.8,1.9-2.7,4.3-2.7,7.3C304.9,65.7,305.8,68.1,307.6,70z"/>
				<path class="st0" d="M341,83.7V41.5h12.7v6.3c0.7-1.9,1.9-3.5,3.8-4.9c1.9-1.3,3.9-2,6.2-2c1.5,0,2.8,0.2,4.1,0.5v12.9
					c-2-0.7-3.9-1-5.7-1c-2.7,0-4.8,0.9-6.3,2.8c-1.5,1.9-2.2,4.4-2.2,7.5v20H341z"/>
			</g>
			<g>
				<path class="st0" d="M97.8,10.1l-48-9.6C35.5-2.3,21.4,7,18.6,21.3l-4.2,21l1.2-0.6c1.6-0.8,3.4-1.6,5.1-2.5
					c5.8-2.8,12-5.8,17.8-7.9c0-0.1,0-0.1,0-0.2l-6.1-2.9l9.5-1.4c6.2-0.6,11.8-1.1,17.3-1.1c3.4,0,6.4,0.2,9.3,0.6
					c4.2,0.6,7.8,2.3,11.2,3.9c3.4,1.6,6.6,3.2,9.9,3.2c0.4,0,0.7,0,1.1-0.1l5.8-0.6l-0.8,2.5c2.6,0.7,4.6,1.6,7.2,3
					c0.2,0.1,0.3,0.2,0.5,0.3c1.1,0.6,2.7,1.4,3.6,2.9c1,1.6,1.7,3.2,2.1,5c0.5,1.9,0.5,4,0.6,5.9c0.1,4.2-2,9.3-5.1,12.2
					c-3.6,3.5-6,4.2-9,4.9c-0.2,0-0.5,0.1-0.7,0.1l-7,1.6l2.6-6.7c0.3-0.6,0.4-1.4,0.6-2.2c-0.8,0.8-1.7,1.7-2.3,2.4
					c-2.7,2.9-5.8,6.3-9.8,8.3c-1.4,0.8-3,1.2-4.7,1.2c-0.8,0-1.5-0.1-2.2-0.2c-1.5,0.8-2.9,1.7-3.9,2.6l-10.9,29.5l20.3,4.1
					c14.3,2.9,28.3-6.5,31.2-20.8l9.6-48C121.4,27,112.1,13,97.8,10.1z"/>
				<path class="st1" d="M41.2,29.8l5.3,2.6c0,0.1,0,0.1,0,0.2c-5.1,1.8-10.7,4.4-15.8,6.8c-1.6,0.7-14.1,6.9-14.1,6.9
					s2.6,1.3,4.3,2.5C13.6,53.2,8,56.7,0,61.2l12.2-1.3l15.6-10.6c0,0-2.8-1.7-4.2-2.6C32,42.9,47,35,54.5,33.9
					c-1.1-0.5-2.5-1-3.6-1.4c-0.4-0.1-1-0.3-1-0.5c3.5-1.6,11.5-3.3,17.6-2.9C54.8,27.7,41.2,29.8,41.2,29.8z"/>
			</g>
		</g>
	</g>
	<g>
		<path class="st1" d="M401.6,84.3c-3.6,0-6.5-1-8.7-3.1c-2.2-2.1-3.4-5.1-3.4-9.2V46.9h-9.1v-5.6h9.1V29.4h6v11.8h12.4v5.6h-12.4
			v24.6c0,2.6,0.6,4.5,1.7,5.6c1.2,1.1,2.9,1.7,5.3,1.7c2.2,0,3.9-0.3,5.4-0.9v5.4C406.1,83.9,404,84.3,401.6,84.3z"/>
		<path class="st1" d="M447.4,78.3c-4.2,4.3-9.5,6.4-15.9,6.4c-6.4,0-11.7-2.1-15.9-6.4c-4.2-4.3-6.3-9.5-6.3-15.7
			c0-6.2,2.1-11.4,6.3-15.7c4.2-4.3,9.5-6.4,15.9-6.4c6.4,0,11.7,2.1,15.9,6.4c4.2,4.3,6.3,9.5,6.3,15.7
			C453.7,68.8,451.6,74,447.4,78.3z M419.8,74.4c3,3.2,6.9,4.8,11.6,4.8c4.8,0,8.6-1.6,11.6-4.8c3-3.2,4.5-7.1,4.5-11.8
			c0-4.7-1.5-8.6-4.5-11.8c-3-3.2-6.9-4.8-11.6-4.8c-4.8,0-8.6,1.6-11.6,4.8c-3,3.2-4.5,7.1-4.5,11.8
			C415.3,67.2,416.8,71.2,419.8,74.4z"/>
		<path class="st1" d="M495.1,78.3c-4.2,4.3-9.5,6.4-15.9,6.4c-6.4,0-11.7-2.1-15.9-6.4c-4.2-4.3-6.3-9.5-6.3-15.7
			c0-6.2,2.1-11.4,6.3-15.7c4.2-4.3,9.5-6.4,15.9-6.4c6.4,0,11.7,2.1,15.9,6.4c4.2,4.3,6.3,9.5,6.3,15.7
			C501.4,68.8,499.3,74,495.1,78.3z M467.5,74.4c3,3.2,6.9,4.8,11.6,4.8c4.8,0,8.6-1.6,11.6-4.8c3-3.2,4.5-7.1,4.5-11.8
			c0-4.7-1.5-8.6-4.5-11.8c-3-3.2-6.9-4.8-11.6-4.8c-4.8,0-8.6,1.6-11.6,4.8c-3,3.2-4.5,7.1-4.5,11.8
			C463.1,67.2,464.6,71.2,467.5,74.4z"/>
		<path class="st1" d="M508.2,83.9V20h6v63.9H508.2z"/>
		<path class="st1" d="M537.5,84.7c-4.5,0-8.4-1.1-11.5-3.3c-3.1-2.2-4.9-5.4-5.2-9.5h6c1.2,5,4.8,7.5,10.7,7.5
			c2.6,0,4.8-0.6,6.5-1.7c1.7-1.1,2.6-2.7,2.6-4.7c0-1.9-0.6-3.4-1.8-4.6c-1.2-1.2-3.2-2.2-5.8-2.9l-5.5-1.4c-7.3-2-11-6.1-11-12.4
			c0-3.4,1.3-6.1,3.9-8.1c2.6-2,6-3,10.1-3c4.3,0,7.8,1.1,10.4,3.4c2.6,2.3,4.1,5.1,4.5,8.4h-5.9c-0.6-2-1.7-3.6-3.3-4.8
			c-1.6-1.2-3.5-1.7-5.7-1.7c-2.3,0-4.2,0.5-5.7,1.6c-1.5,1.1-2.3,2.5-2.3,4.3c0,1.7,0.5,3.1,1.6,4.2c1.1,1.1,2.9,2,5.4,2.6l6.6,1.7
			c3.4,0.9,6,2.3,7.9,4.5c1.8,2.1,2.8,4.8,2.8,8c0,4.1-1.4,7.1-4.1,9.2C545.6,83.7,541.9,84.7,537.5,84.7z"/>
	</g>
</g>
</svg>
